{
    "asset" : {
        "generator" : "Khronos glTF Blender I/O v3.2.40",
        "version" : "2.0"
    },
    "scene" : 0,
    "scenes" : [
        {
            "name" : "Scene",
            "nodes" : [
                9
            ]
        }
    ],
    "nodes" : [
        {
            "mesh" : 0,
            "name" : "Mesh_0"
        },
        {
            "mesh" : 1,
            "name" : "Mesh_1"
        },
        {
            "mesh" : 2,
            "name" : "Mesh_2"
        },
        {
            "mesh" : 3,
            "name" : "Mesh_3"
        },
        {
            "mesh" : 4,
            "name" : "Mesh_4"
        },
        {
            "mesh" : 5,
            "name" : "Mesh_5"
        },
        {
            "mesh" : 6,
            "name" : "Mesh_6"
        },
        {
            "children" : [
                0,
                1,
                2,
                3,
                4,
                5,
                6
            ],
            "name" : "Beats_Final_sketchfab_01.obj.cleaner.materialmerger.gles"
        },
        {
            "children" : [
                7
            ],
            "name" : "RootNode (model correction matrix)"
        },
        {
            "children" : [
                8
            ],
            "name" : "RootNode (gltf orientation matrix)",
            "rotation" : [
                -0.7071068286895752,
                0,
                0,
                0.7071067094802856
            ]
        }
    ],
    "materials" : [
        {
            "doubleSided" : true,
            "name" : "initialShadingGroup.004",
            "normalTexture" : {
                "index" : 0
            },
            "occlusionTexture" : {
                "index" : 1
            },
            "pbrMetallicRoughness" : {
                "baseColorTexture" : {
                    "index" : 2
                },
                "metallicRoughnessTexture" : {
                    "index" : 1
                }
            }
        }
    ],
    "meshes" : [
        {
            "name" : "Mesh_0.004",
            "primitives" : [
                {
                    "attributes" : {
                        "POSITION" : 0,
                        "NORMAL" : 1,
                        "TEXCOORD_0" : 2
                    },
                    "indices" : 3,
                    "material" : 0
                }
            ]
        },
        {
            "name" : "Mesh_1.004",
            "primitives" : [
                {
                    "attributes" : {
                        "POSITION" : 4,
                        "NORMAL" : 5,
                        "TEXCOORD_0" : 6
                    },
                    "indices" : 7,
                    "material" : 0
                }
            ]
        },
        {
            "name" : "Mesh_2.004",
            "primitives" : [
                {
                    "attributes" : {
                        "POSITION" : 8,
                        "NORMAL" : 9,
                        "TEXCOORD_0" : 10
                    },
                    "indices" : 11,
                    "material" : 0
                }
            ]
        },
        {
            "name" : "Mesh_3.004",
            "primitives" : [
                {
                    "attributes" : {
                        "POSITION" : 12,
                        "NORMAL" : 13,
                        "TEXCOORD_0" : 14
                    },
                    "indices" : 15,
                    "material" : 0
                }
            ]
        },
        {
            "name" : "Mesh_4.004",
            "primitives" : [
                {
                    "attributes" : {
                        "POSITION" : 16,
                        "NORMAL" : 17,
                        "TEXCOORD_0" : 18
                    },
                    "indices" : 19,
                    "material" : 0
                }
            ]
        },
        {
            "name" : "Mesh_5.004",
            "primitives" : [
                {
                    "attributes" : {
                        "POSITION" : 20,
                        "NORMAL" : 21,
                        "TEXCOORD_0" : 22
                    },
                    "indices" : 23,
                    "material" : 0
                }
            ]
        },
        {
            "name" : "Mesh_6.004",
            "primitives" : [
                {
                    "attributes" : {
                        "POSITION" : 24,
                        "NORMAL" : 25,
                        "TEXCOORD_0" : 26
                    },
                    "indices" : 27,
                    "material" : 0
                }
            ]
        }
    ],
    "textures" : [
        {
            "sampler" : 0,
            "source" : 0
        },
        {
            "sampler" : 0,
            "source" : 1
        },
        {
            "sampler" : 0,
            "source" : 2
        }
    ],
    "images" : [
        {
            "mimeType" : "image/png",
            "name" : "initialShadingGroup_normal",
            "uri" : "initialShadingGroup_normal.png"
        },
        {
            "mimeType" : "image/png",
            "name" : "initialShadingGroup_metallicRoughness",
            "uri" : "initialShadingGroup_metallicRoughness.png"
        },
        {
            "mimeType" : "image/jpeg",
            "name" : "initialShadingGroup_baseColor",
            "uri" : "initialShadingGroup_baseColor.jpg"
        }
    ],
    "accessors" : [
        {
            "bufferView" : 0,
            "componentType" : 5126,
            "count" : 5491,
            "max" : [
                3.7867729663848877,
                1.1773710250854492,
                1.72576105594635
            ],
            "min" : [
                -3.7867729663848877,
                -1.1768310070037842,
                -3.979935884475708
            ],
            "type" : "VEC3"
        },
        {
            "bufferView" : 1,
            "componentType" : 5126,
            "count" : 5491,
            "type" : "VEC3"
        },
        {
            "bufferView" : 2,
            "componentType" : 5126,
            "count" : 5491,
            "type" : "VEC2"
        },
        {
            "bufferView" : 3,
            "componentType" : 5123,
            "count" : 14688,
            "type" : "SCALAR"
        },
        {
            "bufferView" : 4,
            "componentType" : 5126,
            "count" : 2364,
            "max" : [
                3.5273680686950684,
                1.1143029928207397,
                3.1037919521331787
            ],
            "min" : [
                -3.5273680686950684,
                -1.113765001296997,
                -3.98888897895813
            ],
            "type" : "VEC3"
        },
        {
            "bufferView" : 5,
            "componentType" : 5126,
            "count" : 2364,
            "type" : "VEC3"
        },
        {
            "bufferView" : 6,
            "componentType" : 5126,
            "count" : 2364,
            "type" : "VEC2"
        },
        {
            "bufferView" : 7,
            "componentType" : 5123,
            "count" : 12960,
            "type" : "SCALAR"
        },
        {
            "bufferView" : 8,
            "componentType" : 5126,
            "count" : 2755,
            "max" : [
                3.892735004425049,
                1.5935790538787842,
                1.176954984664917
            ],
            "min" : [
                -3.1193389892578125,
                -1.5930379629135132,
                -4.324364185333252
            ],
            "type" : "VEC3"
        },
        {
            "bufferView" : 9,
            "componentType" : 5126,
            "count" : 2755,
            "type" : "VEC3"
        },
        {
            "bufferView" : 10,
            "componentType" : 5126,
            "count" : 2755,
            "type" : "VEC2"
        },
        {
            "bufferView" : 11,
            "componentType" : 5123,
            "count" : 13968,
            "type" : "SCALAR"
        },
        {
            "bufferView" : 12,
            "componentType" : 5126,
            "count" : 2936,
            "max" : [
                3.800260066986084,
                1.702360987663269,
                1.176954984664917
            ],
            "min" : [
                -3.892735004425049,
                -1.702360987663269,
                -4.324364185333252
            ],
            "type" : "VEC3"
        },
        {
            "bufferView" : 13,
            "componentType" : 5126,
            "count" : 2936,
            "type" : "VEC3"
        },
        {
            "bufferView" : 14,
            "componentType" : 5126,
            "count" : 2936,
            "type" : "VEC2"
        },
        {
            "bufferView" : 15,
            "componentType" : 5123,
            "count" : 14736,
            "type" : "SCALAR"
        },
        {
            "bufferView" : 16,
            "componentType" : 5126,
            "count" : 2003,
            "max" : [
                2.565315008163452,
                1.702360987663269,
                1.150961995124817
            ],
            "min" : [
                -3.800260066986084,
                -1.702360987663269,
                -4.287137985229492
            ],
            "type" : "VEC3"
        },
        {
            "bufferView" : 17,
            "componentType" : 5126,
            "count" : 2003,
            "type" : "VEC3"
        },
        {
            "bufferView" : 18,
            "componentType" : 5126,
            "count" : 2003,
            "type" : "VEC2"
        },
        {
            "bufferView" : 19,
            "componentType" : 5123,
            "count" : 9984,
            "type" : "SCALAR"
        },
        {
            "bufferView" : 20,
            "componentType" : 5126,
            "count" : 1217,
            "max" : [
                3.7923660278320312,
                0.6513130068778992,
                4.461175918579102
            ],
            "min" : [
                -3.7923660278320312,
                -0.6511750221252441,
                1.1293530464172363
            ],
            "type" : "VEC3"
        },
        {
            "bufferView" : 21,
            "componentType" : 5126,
            "count" : 1217,
            "type" : "VEC3"
        },
        {
            "bufferView" : 22,
            "componentType" : 5126,
            "count" : 1217,
            "type" : "VEC2"
        },
        {
            "bufferView" : 23,
            "componentType" : 5123,
            "count" : 6240,
            "type" : "SCALAR"
        },
        {
            "bufferView" : 24,
            "componentType" : 5126,
            "count" : 2836,
            "max" : [
                3.867408037185669,
                0.6764540076255798,
                4.558412075042725
            ],
            "min" : [
                -3.867408037185669,
                -0.6759139895439148,
                1.158877968788147
            ],
            "type" : "VEC3"
        },
        {
            "bufferView" : 25,
            "componentType" : 5126,
            "count" : 2836,
            "type" : "VEC3"
        },
        {
            "bufferView" : 26,
            "componentType" : 5126,
            "count" : 2836,
            "type" : "VEC2"
        },
        {
            "bufferView" : 27,
            "componentType" : 5123,
            "count" : 9600,
            "type" : "SCALAR"
        }
    ],
    "bufferViews" : [
        {
            "buffer" : 0,
            "byteLength" : 65892,
            "byteOffset" : 0
        },
        {
            "buffer" : 0,
            "byteLength" : 65892,
            "byteOffset" : 65892
        },
        {
            "buffer" : 0,
            "byteLength" : 43928,
            "byteOffset" : 131784
        },
        {
            "buffer" : 0,
            "byteLength" : 29376,
            "byteOffset" : 175712
        },
        {
            "buffer" : 0,
            "byteLength" : 28368,
            "byteOffset" : 205088
        },
        {
            "buffer" : 0,
            "byteLength" : 28368,
            "byteOffset" : 233456
        },
        {
            "buffer" : 0,
            "byteLength" : 18912,
            "byteOffset" : 261824
        },
        {
            "buffer" : 0,
            "byteLength" : 25920,
            "byteOffset" : 280736
        },
        {
            "buffer" : 0,
            "byteLength" : 33060,
            "byteOffset" : 306656
        },
        {
            "buffer" : 0,
            "byteLength" : 33060,
            "byteOffset" : 339716
        },
        {
            "buffer" : 0,
            "byteLength" : 22040,
            "byteOffset" : 372776
        },
        {
            "buffer" : 0,
            "byteLength" : 27936,
            "byteOffset" : 394816
        },
        {
            "buffer" : 0,
            "byteLength" : 35232,
            "byteOffset" : 422752
        },
        {
            "buffer" : 0,
            "byteLength" : 35232,
            "byteOffset" : 457984
        },
        {
            "buffer" : 0,
            "byteLength" : 23488,
            "byteOffset" : 493216
        },
        {
            "buffer" : 0,
            "byteLength" : 29472,
            "byteOffset" : 516704
        },
        {
            "buffer" : 0,
            "byteLength" : 24036,
            "byteOffset" : 546176
        },
        {
            "buffer" : 0,
            "byteLength" : 24036,
            "byteOffset" : 570212
        },
        {
            "buffer" : 0,
            "byteLength" : 16024,
            "byteOffset" : 594248
        },
        {
            "buffer" : 0,
            "byteLength" : 19968,
            "byteOffset" : 610272
        },
        {
            "buffer" : 0,
            "byteLength" : 14604,
            "byteOffset" : 630240
        },
        {
            "buffer" : 0,
            "byteLength" : 14604,
            "byteOffset" : 644844
        },
        {
            "buffer" : 0,
            "byteLength" : 9736,
            "byteOffset" : 659448
        },
        {
            "buffer" : 0,
            "byteLength" : 12480,
            "byteOffset" : 669184
        },
        {
            "buffer" : 0,
            "byteLength" : 34032,
            "byteOffset" : 681664
        },
        {
            "buffer" : 0,
            "byteLength" : 34032,
            "byteOffset" : 715696
        },
        {
            "buffer" : 0,
            "byteLength" : 22688,
            "byteOffset" : 749728
        },
        {
            "buffer" : 0,
            "byteLength" : 19200,
            "byteOffset" : 772416
        }
    ],
    "samplers" : [
        {
            "magFilter" : 9729,
            "minFilter" : 9987
        }
    ],
    "buffers" : [
        {
            "byteLength" : 791616,
            "uri" : "test.bin"
        }
    ]
}
